<?xml version="1.0" ?><svg id="Layer_1" style="enable-background:new 0 0 512 512;" version="1.1" viewBox="0 0 512 512" xml:space="preserve" xmlns="http://www.w3.org/2000/svg" xmlns:xlink="http://www.w3.org/1999/xlink"><g><g><path d="M351.882,176.596l24.353-5.956l19.876,26.437c1.108,1.482,2.855,2.364,4.696,2.395l25.197,0.374c0.031,0,0.062,0,0.094,0    c3.276,0,5.944-2.621,5.991-5.905c0.047-3.308-2.59-6.03-5.897-6.077l-22.264-0.328l-20.485-27.248    c-1.451-1.911-3.885-2.793-6.209-2.223l-34.037,8.322c-16.699-19.289-30.015-32.766-34.906-37.601l0.358-1.215    c0.172-0.593,0.265-1.201,0.25-1.818c-0.019-0.891-0.199-1.728-0.314-2.588l36.713-14.753c2.605-1.053,4.134-3.768,3.682-6.537    l-4.556-27.529l9.252-34.503c0.858-3.198-1.045-6.482-4.244-7.341c-3.12-0.819-6.475,1.045-7.333,4.236l-9.579,35.751    c-0.218,0.827-0.265,1.685-0.125,2.527l3.978,24.066l-32.392,13.016c-1.336-1.707-2.908-3.205-4.67-4.488    c5.339-5.472,8.253-11.755,8.121-18.349c-0.39-19.323-25.758-33.778-58.007-33.317c-32.116,0.655-56.969,16.304-56.587,35.626    c0.137,6.572,3.29,12.707,8.799,17.942c-0.776,0.626-1.575,1.22-2.278,1.95c-0.709,0.739-1.275,1.569-1.874,2.379l-30.632-15.21    l3.058-24.768c0.109-0.842,0.031-1.701-0.226-2.52l-11.015-35.33c-0.975-3.144-4.267-4.938-7.504-3.932    c-3.159,0.983-4.915,4.345-3.932,7.504l10.625,34.09l-3.417,27.701c-0.312,2.52,0.999,4.969,3.276,6.1l35.38,17.57    c-0.111,1.012-0.257,2.019-0.237,3.055c0.016,0.608,0.117,1.217,0.32,1.794l0.408,1.207c-4.659,4.996-17.267,18.84-33.006,38.557    l-30.916-11.298c-2.574-0.936-5.445-0.031-6.99,2.223l-19.362,28.052l-22.232,1.233c-3.3,0.187-5.827,3.011-5.648,6.319    c0.179,3.191,2.824,5.656,5.975,5.656c0.117,0,0.226,0,0.343-0.008l25.158-1.396c1.849-0.101,3.542-1.053,4.595-2.582    l18.402-26.655l22.885,8.365c-42.712,55.353-100.506,146.044-89.347,219.986c0.686,4.602,3.635,8.472,7.855,10.391    c9.595,4.353,35.244,14.65,63.015,14.65c13.293,0,27.069-2.356,39.792-8.862c1.363-0.696,2.605-1.571,3.915-2.346l12.748,20.319    l-0.593,40.408c-0.047,3.308,2.598,6.038,5.905,6.085c0.031,0,0.055,0,0.086,0c3.269,0,5.944-2.621,5.991-5.897l0.616-42.187    c0.016-1.155-0.304-2.293-0.913-3.276l-14.036-22.379c7.84-6.59,14.473-14.907,19.846-24.966    c9.153,21.458,19.022,39.499,29.762,53.678c5.507,7.286,11.951,14.962,18.293,14.962c0.367,0,0.733-0.031,1.092-0.078    c8.238,0.437,14.494-7.738,20.423-16.288c9.818-14.114,18.894-32.457,27.143-54.233c5.777,9.834,12.741,17.877,20.842,24.144    l-13.115,22.929c-0.577,1.014-0.842,2.153-0.78,3.308l2.325,42.124c0.172,3.198,2.808,5.663,5.975,5.663    c0.109,0,0.218,0,0.328-0.016c3.308-0.172,5.835-2.996,5.648-6.303l-2.215-40.361l11.906-20.822    c1.335,0.719,2.606,1.54,3.992,2.178c11.545,5.336,23.777,7.348,35.697,7.348c29.456,0,56.899-12.294,66.822-17.287    c4.134-2.106,6.912-6.116,7.411-10.703C457.315,317.874,396.723,230.267,351.882,176.596z M207.411,134.585l-2.559-7.559    c0.14-2.722,1.248-5.273,3.152-7.263c2.098-2.184,4.93-3.425,7.957-3.487l36.484-0.725h0.008l32.888-0.671    c5.975,0.055,10.984,4.423,11.53,10.297l-2.247,7.653c-5.757,19.635-13.839,38.606-24.073,56.501    c-1.818,3.37-7.871,13.121-13.893,17.755c-0.647,0.507-2.964,1.412-3.651,1.552c-1.615-0.094-3.978-0.921-4.665-1.404    c-7.419-5.25-14.51-17.045-14.65-17.279C222.818,172.621,213.979,153.993,207.411,134.585z M204.821,91.329    c-0.211-10.633,18.16-22.856,44.863-23.395c12.754-0.374,24.596,2.192,33.536,6.912c7.66,4.056,12.122,9.4,12.232,14.658    c0.125,5.944-5.008,10.664-8.862,13.363l-34.378,0.624c-0.122,0.002-0.223,0.066-0.343,0.076l-36.149,0.727    c-0.415,0.009-0.81,0.115-1.222,0.144C210.503,101.935,204.95,97.44,204.821,91.329z M168.656,405.062    c-34.542,17.661-79.459-0.156-92.409-6.038c-0.538-0.25-0.866-0.671-0.959-1.248c-14.246-94.402,96.131-224.068,122.957-253.956    c2.073,5.725,4.401,11.344,6.847,16.913c0.035,0.281-0.02,0.554,0.057,0.835c5.406,19.767,21.632,91.207,3.565,180.62    C202.372,373.562,188.9,394.718,168.656,405.062z M266.962,427.575c-5.679,8.175-8.3,10.25-10.032,10.562    c-1.209-0.25-3.916-2.231-10.391-10.796c-11.41-15.056-22.22-35.603-32.186-60.955c2.437-6.739,4.519-13.959,6.108-21.828    c12.064-59.728,9.519-110.909,4.378-146.181c2.716,4.172,9.201,13.417,16.583,18.637c2.637,1.864,7.208,3.37,11.818,3.565    c3.074-0.296,7.746-1.693,10.75-4.017c7.195-5.535,13.318-15.087,15.808-19.285c-3.707,35.452-4.172,86.691,10.317,145.876    c1.908,7.798,4.281,14.928,6.99,21.563C288.188,390.415,278.207,411.407,266.962,427.575z M437.3,390.443    c-0.078,0.733-0.546,1.108-0.905,1.295c-12.7,6.397-56.806,26.055-92.097,9.767c-20.625-9.517-34.948-30.111-42.546-61.19    c-21.686-88.61-8.378-160.65-3.776-180.62c0.011-0.048-0.006-0.093,0.004-0.14c2.303-5.845,4.409-11.759,6.304-17.745    C332.529,170.842,447.697,295.694,437.3,390.443z"/></g><path d="M207.411,134.585l-2.559-7.559c0.14-2.722,1.248-5.273,3.152-7.263   c2.098-2.184,4.93-3.425,7.957-3.487l36.484-0.725h0.008l32.888-0.671c5.975,0.055,10.984,4.423,11.53,10.297l-2.247,7.653   c-5.757,19.635-13.839,38.606-24.073,56.501c-1.818,3.37-7.871,13.121-13.893,17.755c-0.647,0.507-2.964,1.412-3.651,1.552   c-1.615-0.094-3.978-0.921-4.665-1.404c-7.419-5.25-14.51-17.045-14.65-17.279C222.818,172.621,213.979,153.993,207.411,134.585z" style="fill:#AAB2BD;"/><path d="M204.821,91.329c-0.211-10.633,18.16-22.856,44.863-23.395c12.754-0.374,24.596,2.192,33.536,6.912   c7.66,4.056,12.122,9.4,12.232,14.658c0.125,5.944-5.008,10.664-8.862,13.363l-34.378,0.624c-0.122,0.002-0.223,0.066-0.343,0.076   l-36.149,0.727c-0.415,0.009-0.81,0.115-1.222,0.144C210.503,101.935,204.95,97.44,204.821,91.329z" style="fill:#7A563D;"/><path d="M266.962,427.575c-5.679,8.175-8.3,10.25-10.032,10.562c-1.209-0.25-3.916-2.231-10.391-10.796   c-11.41-15.056-22.22-35.603-32.186-60.955c2.437-6.739,4.519-13.959,6.108-21.828c12.064-59.728,9.519-110.909,4.378-146.181   c2.716,4.172,9.201,13.417,16.583,18.637c2.637,1.864,7.208,3.37,11.818,3.565c3.074-0.296,7.746-1.693,10.75-4.017   c7.195-5.535,13.318-15.087,15.808-19.285c-3.707,35.452-4.172,86.691,10.317,145.876c1.908,7.798,4.281,14.928,6.99,21.563   C288.188,390.415,278.207,411.407,266.962,427.575z" style="fill:#FBB540;"/><path d="M168.656,405.062c-34.542,17.661-79.459-0.156-92.409-6.038c-0.538-0.25-0.866-0.671-0.959-1.248   c-14.246-94.402,96.131-224.068,122.957-253.956c2.073,5.725,4.401,11.344,6.847,16.913c0.035,0.281-0.02,0.554,0.057,0.835   c5.406,19.767,21.632,91.207,3.565,180.62C202.372,373.562,188.9,394.718,168.656,405.062z" style="fill:#AAB2BD;"/><path d="M437.3,390.443c-0.078,0.733-0.546,1.108-0.905,1.295c-12.7,6.397-56.806,26.055-92.097,9.767   c-20.625-9.517-34.948-30.111-42.546-61.19c-21.686-88.61-8.378-160.65-3.776-180.62c0.011-0.048-0.006-0.093,0.004-0.14   c2.303-5.845,4.409-11.759,6.304-17.745C332.529,170.842,447.697,295.694,437.3,390.443z" style="fill:#AAB2BD;"/></g></svg>